<svg xmlns="http://www.w3.org/2000/svg" viewBox="0 0 120 120" width="120" height="120">
  <defs>
    <linearGradient id="bg" x1="0" y1="0" x2="1" y2="1">
      <stop offset="0%" stop-color="#7F77DD"/>
      <stop offset="100%" stop-color="#534AB7"/>
    </linearGradient>
  </defs>
  <rect width="120" height="120" rx="24" fill="url(#bg)"/>
  <!-- Brain/memory icon -->
  <g transform="translate(60,56)" fill="none" stroke="#fff" stroke-width="2.5" stroke-linecap="round" stroke-linejoin="round">
    <!-- Left hemisphere -->
    <path d="M-4,-24 C-20,-24 -30,-14 -30,0 C-30,8 -26,14 -20,18 C-20,22 -16,26 -10,26 C-6,26 -4,24 -4,24"/>
    <path d="M-4,-24 C-4,-28 -10,-30 -16,-28"/>
    <path d="M-30,0 L-4,0"/>
    <path d="M-26,10 L-4,10"/>
    <!-- Right hemisphere -->
    <path d="M4,-24 C20,-24 30,-14 30,0 C30,8 26,14 20,18 C20,22 16,26 10,26 C6,26 4,24 4,24"/>
    <path d="M4,-24 C4,-28 10,-30 16,-28"/>
    <path d="M30,0 L4,0"/>
    <path d="M26,10 L4,10"/>
    <!-- Center connection -->
    <line x1="0" y1="-24" x2="0" y2="26"/>
    <!-- Code brackets at bottom -->
    <path d="M-12,32 L-18,38 L-12,44" stroke-width="2.5"/>
    <path d="M12,32 L18,38 L12,44" stroke-width="2.5"/>
    <line x1="-4" y1="46" x2="4" y2="30" stroke-width="2"/>
  </g>
</svg>
